<svg xmlns="http://www.w3.org/2000/svg" viewBox="0 0 180 180" width="180" height="180">
  <defs>
    <style>
      .grid { fill: none; stroke: #6b7280; stroke-width: 1; }
      .thick { stroke-width: 3; stroke: #374151; }
      .number { fill: #1f2937; font-family: -apple-system, BlinkMacSystemFont, sans-serif; font-size: 16px; font-weight: 600; text-anchor: middle; dominant-baseline: central; }
      .bg { fill: #ffffff; }
      .cell-bg { fill: #f9fafb; }
    </style>
  </defs>
  
  <!-- Background with iOS rounded corners -->
  <rect class="bg" width="180" height="180" rx="40"/>
  
  <!-- Grid background -->
  <rect class="cell-bg" x="20" y="20" width="140" height="140" rx="8"/>
  
  <!-- 9x9 Grid lines -->
  <g class="grid">
    <!-- Vertical lines -->
    <line x1="35.56" y1="20" x2="35.56" y2="160"/>
    <line x1="51.11" y1="20" x2="51.11" y2="160"/>
    <line x1="66.67" y1="20" x2="66.67" y2="160"/>
    <line x1="82.22" y1="20" x2="82.22" y2="160"/>
    <line x1="97.78" y1="20" x2="97.78" y2="160"/>
    <line x1="113.33" y1="20" x2="113.33" y2="160"/>
    <line x1="128.89" y1="20" x2="128.89" y2="160"/>
    <line x1="144.44" y1="20" x2="144.44" y2="160"/>
    
    <!-- Horizontal lines -->
    <line x1="20" y1="35.56" x2="160" y2="35.56"/>
    <line x1="20" y1="51.11" x2="160" y2="51.11"/>
    <line x1="20" y1="66.67" x2="160" y2="66.67"/>
    <line x1="20" y1="82.22" x2="160" y2="82.22"/>
    <line x1="20" y1="97.78" x2="160" y2="97.78"/>
    <line x1="20" y1="113.33" x2="160" y2="113.33"/>
    <line x1="20" y1="128.89" x2="160" y2="128.89"/>
    <line x1="20" y1="144.44" x2="160" y2="144.44"/>
  </g>
  
  <!-- Thick 3x3 box borders -->
  <g class="thick">
    <rect x="20" y="20" width="140" height="140" rx="8"/>
    <line x1="66.67" y1="20" x2="66.67" y2="160"/>
    <line x1="113.33" y1="20" x2="113.33" y2="160"/>
    <line x1="20" y1="66.67" x2="160" y2="66.67"/>
    <line x1="20" y1="113.33" x2="160" y2="113.33"/>
  </g>
  
  <!-- Numbers from your Sudoku grid -->
  <g class="number">
    <!-- Row 1 -->
    <text x="27.78" y="27.78">5</text>
    <text x="43.33" y="27.78">3</text>
    <text x="90" y="27.78">7</text>
    
    <!-- Row 2 -->
    <text x="27.78" y="43.33">6</text>
    <text x="74.44" y="43.33">1</text>
    <text x="90" y="43.33">9</text>
    <text x="105.56" y="43.33">5</text>
    
    <!-- Row 3 -->
    <text x="43.33" y="58.89">9</text>
    <text x="58.89" y="58.89">8</text>
    <text x="152.22" y="58.89">6</text>
    
    <!-- Row 4 -->
    <text x="27.78" y="74.44">8</text>
    <text x="90" y="74.44">6</text>
    <text x="152.22" y="74.44">3</text>
    
    <!-- Row 5 -->
    <text x="27.78" y="90">4</text>
    <text x="74.44" y="90">8</text>
    <text x="105.56" y="90">3</text>
    <text x="152.22" y="90">1</text>
    
    <!-- Row 6 -->
    <text x="27.78" y="105.56">7</text>
    <text x="90" y="105.56">2</text>
    <text x="152.22" y="105.56">6</text>
    
    <!-- Row 7 -->
    <text x="43.33" y="121.11">6</text>
    <text x="121.11" y="121.11">2</text>
    <text x="136.67" y="121.11">8</text>
    
    <!-- Row 8 -->
    <text x="74.44" y="136.67">4</text>
    <text x="90" y="136.67">1</text>
    <text x="105.56" y="136.67">9</text>
    <text x="152.22" y="136.67">5</text>
    
    <!-- Row 9 -->
    <text x="90" y="152.22">8</text>
    <text x="136.67" y="152.22">7</text>
    <text x="152.22" y="152.22">9</text>
  </g>
</svg>
